# xmcd
#
# Track frame offsets:
#	150
#	13118
#	21989
#	47534
#	59168
#	75467
#	91929
#	105626
#	122790
#	134655
#	145607
#	155917
#	168798
#	178258
#	196049
#	208229
#	220085
#	232832
#	245734
#	258589
#	273446
#	289689
#	307425
#	332355
#
# Disc length: 4660 seconds
#
# Revision: 2
# Processed by: cddbd v1.5.2PL0 Copyright (c) Steve Scherf et al.
# Submitted via: audiograbber 1.83.01
#
DISCID=67123218
DTITLE=Kris Kristofferson - The Complete Monument and Columbia Albums Collection 
DTITLE=(CD 14) - Live At The Philharmonic [remastered 2016]
DYEAR=1992
DGENRE=Singer/Songwriter
TTITLE0=Late John Garfield Blues [live]
TTITLE1=Jesus Was A Capricorn [Owed To John Prine] [live]
TTITLE2=Nobody Wins [live]
TTITLE3=Jesse Younger [live]
TTITLE4=Loving Her Was Easier (Than Anything I'll Ever Do Again) [live]
TTITLE5=Late Again (Gettin' Over You) [live]
TTITLE6=Out Of Mind, Out Of Sight [live]
TTITLE7=Sugar Man [live]
TTITLE8=Billy Dee [live]
TTITLE9=The Law Is For Protection Of The People [live]
TTITLE10=For The Good Times [live]
TTITLE11=Sunday Mornin' Comin' Down [live]
TTITLE12=Okie From Muskogee [live]
TTITLE13=Border Lord [live]
TTITLE14=Funny How Time Slips Away [live with Willie Nelson]
TTITLE15=Night Life [live with Willie Nelson]
TTITLE16=Me And Paul [live with Willie Nelson]
TTITLE17=Mountain Dew [live with Willie Nelson]
TTITLE18=The Pilgrim - Chapter 33 [live]
TTITLE19=Rainbow Road [live]
TTITLE20=It Sure Was (Love) [live with Rita Coolidge]
TTITLE21=Help Me [live with Larry Gatlin]
TTITLE22=Me And Bobby McGee [live with Rita Coolidge]
TTITLE23=Whiskey, Whiskey [live with Rita Coolidge]
EXTD=
EXTT0=
EXTT1=
EXTT2=
EXTT3=
EXTT4=
EXTT5=
EXTT6=
EXTT7=
EXTT8=
EXTT9=
EXTT10=
EXTT11=
EXTT12=
EXTT13=
EXTT14=
EXTT15=
EXTT16=
EXTT17=
EXTT18=
EXTT19=
EXTT20=
EXTT21=
EXTT22=
EXTT23=
PLAYORDER=
